<?xml version="1.0" encoding="UTF-8"?>
<svg xmlns="http://www.w3.org/2000/svg" width="1200" height="630" viewBox="0 0 1200 630">
  <defs>
    <linearGradient id="logoBg" x1="0" y1="0" x2="0" y2="1">
      <stop offset="0" stop-color="#0e9d62"/>
      <stop offset="1" stop-color="#0a7a4b"/>
    </linearGradient>
    <style>
      text { font-family: "Hiragino Sans", "Yu Gothic", "Noto Sans JP", sans-serif; letter-spacing: 0; }
    </style>
  </defs>
  
    <rect width="1200" height="630" fill="#eef7f2"/>
    <circle cx="1104" cy="12.6" r="384" fill="#d9f0e6" opacity="0.72"/>
    <circle cx="96" cy="598.5" r="312" fill="#ffffff" opacity="0.58"/>
    <path d="M 96 113.39999999999999 C 276 50.4, 432 100.8, 600 50.4" fill="none" stroke="#0e9d62" stroke-width="10" stroke-linecap="round" opacity="0.18"/>
  
  
    
    <g transform="translate(80 80)">
      <rect width="132" height="132" rx="31.68" fill="url(#logoBg)"/>
      <rect x="31.680000000000007" y="23.75999999999999" width="68.64" height="84.48" rx="10.56" fill="#ffffff"/>
      <rect x="40.92" y="35.64" width="50.160000000000004" height="9.24" rx="4.62" fill="#d9f0e6"/>
      <rect x="40.92" y="58.08" width="50.160000000000004" height="5.9399999999999995" rx="2.904" fill="#dfeaff"/>
      <rect x="40.92" y="73.92" width="43.56" height="5.9399999999999995" rx="2.904" fill="#f5b939"/>
      <rect x="80.52" y="77.88" width="23.759999999999998" height="23.759999999999998" rx="5.9399999999999995" fill="#0a7a4b"/>
      <path d="M 85.8 89.76 l 4.62 5.28 l 9.9 -13.86" fill="none" stroke="#ffffff" stroke-width="4.62" stroke-linecap="round" stroke-linejoin="round"/>
    </g>
    <text x="245" y="118" fill="#0a7a4b" font-size="34" font-weight="900">公開中のWebアプリ</text>
    <text x="80" y="294" fill="#122a3d" font-size="72" font-weight="900">ソフテニルールドリル</text>
    <text x="84" y="374" fill="#0a7a4b" font-size="43" font-weight="900">はじめてのルールを10問ずつ</text>
    <text x="86" y="432" fill="#5d7184" font-size="30" font-weight="700">スマホで4択ドリル・記録・振り返り</text>
    
    <g>
      <rect x="80" y="493" width="250" height="58" rx="29" fill="#ffffff" stroke="#dcebe4" stroke-width="2"/>
      <circle cx="114" cy="522" r="10" fill="#0e9d62"/>
      <text x="138" y="531" fill="#122a3d" font-size="25" font-weight="800">1セット10問</text>
    </g>
    
    <g>
      <rect x="352" y="493" width="240" height="58" rx="29" fill="#ffffff" stroke="#dcebe4" stroke-width="2"/>
      <circle cx="386" cy="522" r="10" fill="#0e9d62"/>
      <text x="410" y="531" fill="#122a3d" font-size="25" font-weight="800">4択ドリル</text>
    </g>
    
    <g>
      <rect x="614" y="493" width="220" height="58" rx="29" fill="#ffffff" stroke="#dcebe4" stroke-width="2"/>
      <circle cx="648" cy="522" r="10" fill="#0e9d62"/>
      <text x="672" y="531" fill="#122a3d" font-size="25" font-weight="800">記録つき</text>
    </g>
    <rect x="842" y="74" width="278" height="280" rx="42" fill="#ffffff" stroke="#dcebe4" stroke-width="2"/>
    
    <g>
      <rect x="872" y="105" width="218" height="86" rx="17.2" fill="#ffffff" stroke="#dcebe4" stroke-width="2"/>
      <text x="898.16" y="137.68" fill="#5d7184" font-size="17.2" font-weight="800">回答</text>
      <text x="898.16" y="170.36" fill="#0a7a4b" font-size="29.240000000000002" font-weight="900">10問</text>
    </g>
    
    <g>
      <rect x="872" y="207" width="218" height="86" rx="17.2" fill="#ffffff" stroke="#dcebe4" stroke-width="2"/>
      <text x="898.16" y="239.68" fill="#5d7184" font-size="17.2" font-weight="800">形式</text>
      <text x="898.16" y="272.36" fill="#ee4d54" font-size="29.240000000000002" font-weight="900">4択</text>
    </g>
    <text x="842" y="560" fill="#5d7184" font-size="24" font-weight="800">公開中のWebアプリ</text>
  
</svg>
